<svg width="713.52567" height="614.00006" xmlns="http://www.w3.org/2000/svg">

 <g>
  <title>Layer 1</title>
  <g id="svg_1">
   <path fill="#ebccab" d="m347.87323,451.90152c16.98547,5.29892 28.0195,18.35818 24.64548,29.1673c-3.37405,10.80911 -19.87653,15.27332 -36.86734,9.97025c-6.81619,-2.02527 -13.04828,-5.65344 -18.1748,-10.58099l-71.68465,-23.36063l11.67949,-33.40585l69.42838,26.57608c7.02133,-1.13821 14.21317,-0.578 20.97348,1.63382l-0.00003,0.00003l-0.00001,-0.00001z" id="uuid-6196eb31-7879-4347-98a5-d4920e9b844a-137"/>
   <path id="svg_2" fill="#e6e6e6" d="m194.30498,206.79003l-0.00006,0c-17.0927,-2.02448 -32.8309,9.528 -36.01506,26.44307c-11.35732,60.33289 -35.47932,190.79974 -32.30268,193.97641c4.13558,4.13559 158.53068,49.62698 158.53068,49.62698l17.92087,-38.59879l-102.01105,-49.62698l22.37239,-144.3019c2.84016,-18.31905 -10.08585,-35.33842 -28.49509,-37.51881l0,0.00002z"/>
  </g>
  <g id="svg_3">
   <path fill="#a0616a" d="m380.31247,514.65845c-16.57343,6.47351 -33.34772,3.16943 -37.46579,-7.37866s5.97897,-24.34344 22.55917,-30.81708c6.58765,-2.67679 13.72052,-3.73706 20.80191,-3.09204l70.56866,-26.54187l11.74945,33.38129l-70.81561,22.62152c-4.77151,5.27515 -10.73724,9.33063 -17.39777,11.82684l-0.00003,0l0.00001,0z" id="uuid-3fde6871-43da-4028-ab85-c0da4f58c237-138"/>
   <path id="svg_4" fill="#e6e6e6" d="m482.07956,228.14661l0.00006,0c16.918,-3.16853 33.39694,7.3002 37.71066,23.96306c15.38605,59.4333 48.22101,187.98421 45.26501,191.36714c-3.84833,4.40414 -154.83734,60.16818 -154.83734,60.16818l-20.47421,-37.30722l98.4455,-56.37003l-32.01898,-142.47226c-4.06479,-18.08678 7.68829,-35.93631 25.90939,-39.34889l-0.00009,0.00002z"/>
  </g>
  <polygon id="svg_5" fill="#ebccab" points="182.19685 215.45674 190.60481 162.90703 133.85113 139.78516 125.44317 219.66072 182.19685 215.45674"/>
  <polygon id="svg_6" fill="#a0616a" points="513.66339 223.72791 505.25546 171.17821 562.00915 148.05634 570.41711 227.93189 513.66339 223.72791"/>
  <g id="svg_7">
   <circle id="svg_8" fill="#ebccab" r="57.8752" cy="121.92467" cx="167.85481"/>
   <path id="svg_9" fill="#fbe7a1" d="m163.23585,44.11551c1.67468,0.97758 3.91788,-0.50148 4.45485,-2.36477s-0.08853,-3.84161 -0.70883,-5.67885l-3.12267,-9.24891c-2.21466,-6.55954 -4.56517,-13.34829 -9.36159,-18.34095c-7.23942,-7.5356 -18.74454,-9.45263 -29.10147,-8.06381c-13.30033,1.78351 -26.42318,8.9855 -32.60744,20.89493c-6.18426,11.90943 -3.55139,28.52735 7.62317,35.95763c-15.92619,18.25407 -21.47782,38.5976 -20.60124,62.80681s27.2587,46.48959 44.46336,63.54404c3.84212,-2.32903 7.33504,-13.2439 5.22223,-17.20903c-2.1128,-3.96513 0.91437,-8.55885 -1.70228,-12.21117c-2.61665,-3.65231 -4.8058,2.16325 -2.16043,-1.46831c1.66927,-2.29158 -4.84585,-7.56354 -2.36458,-8.93507c12.00146,-6.63399 15.99306,-21.5933 23.53075,-33.04879c9.09186,-13.81745 24.65257,-23.17476 41.11992,-24.72714c9.07129,-0.85515 18.65257,0.6937 26.08797,5.96006s12.24902,14.67727 10.52483,23.62416c4.46538,-4.53399 6.68816,-11.17856 5.84978,-17.48679s-4.7195,-12.14158 -10.21411,-15.35187c3.34096,-11.04836 0.47887,-23.7572 -7.27567,-32.3068c-7.75452,-8.5496 -39.21107,-7.09344 -50.53209,-4.84334"/>
   <path id="svg_10" fill="#fbe7a1" d="m161.47775,86.35749c-14.99432,1.61864 -25.82066,14.60707 -34.9626,26.60187c-5.2692,6.91353 -10.78864,14.54836 -10.65635,23.23995c0.13374,8.78745 6.00904,16.32458 8.81694,24.6524c4.58959,13.61208 0.1165,29.80731 -10.80879,39.13422c10.79542,2.04855 22.46555,-6.04584 24.32919,-16.87471c2.16949,-12.60612 -7.38655,-24.77298 -6.25481,-37.51428c0.99709,-11.22523 9.84303,-19.86437 17.36342,-28.25745c7.52039,-8.39308 14.58333,-19.53049 11.12357,-30.25569"/>
  </g>
  <path id="svg_11" fill="#e6e6e6" d="m188.75362,206.64507l-65.52348,-17.92085l-67.54786,27.57056l-28.94908,228.8356l165.42333,5.5141l0,-36.91089s28.94908,-36.15106 23.43497,-88.53513l-5.51411,-52.38406l-21.32376,-66.16933l-0.00001,0z"/>
  <path id="svg_12" fill="#3f3d56" d="m219.0378,299.69568l-129.5816,-6.89264l-35.15246,99.94327s-43.42362,59.96594 -50.31626,104.07886c-6.89264,44.11295 -2.75706,106.14664 -2.75706,106.14664l207.45214,0l-16.52605,-189.23822s38.58249,-83.71027 34.11043,-98.18481c-4.47208,-14.47455 -7.22913,-15.85306 -7.22913,-15.85306l-0.00002,-0.00003l0.00001,-0.00001z"/>
  <rect id="svg_13" fill="#3f3d56" height="117.17485" width="31.70614" y="189.41347" x="88.07767"/>
  <rect id="svg_14" fill="#3f3d56" height="96.49695" width="31.70615" y="215.6055" x="185.95312"/>
  <path id="svg_15" fill="#e6e6e6" d="m504.34961,217.6733l65.5235,-17.92085l67.54785,27.57056l28.9491,228.8356l-165.42334,5.5141l0,-36.91089s-16.92203,-37.73605 -0.68927,-87.84586c15.85309,-48.93774 -17.2316,-53.0733 -17.2316,-53.0733l21.32376,-66.16933l0,-0.00003z"/>
  <path id="svg_16" fill="#3f3d56" d="m474.06543,310.72391l129.5816,-6.89264l35.15247,99.94327s21.36719,68.23712 28.25983,112.35004s24.81348,97.87549 24.81348,97.87549l-207.45215,0l-6.21967,-181.96564l-4.13559,-121.31042l0.00003,-0.00009l0,-0.00001z"/>
  <rect id="svg_17" fill="#3f3d56" height="117.17484" width="31.70612" y="200.44168" x="573.31946"/>
  <rect id="svg_18" fill="#3f3d56" height="96.49692" width="31.70615" y="226.63376" x="475.44397"/>
  <circle id="svg_19" fill="#a0616a" r="72.48663" cy="115.35628" cx="526.48045"/>
  <path id="svg_20" fill="#2f2e41" d="m597.77972,154.67856s-35.0697,-42.08368 -49.09766,-38.57671s-5.26044,8.76743 -5.26044,8.76743l-35.06973,-38.57671s-28.05579,-10.52092 -54.35809,22.79533c0,0 -15.78137,-28.05579 0,-43.83717c15.78137,-15.78138 21.04184,-14.02789 24.5488,-22.79533c3.50696,-8.76743 28.05579,-15.78138 28.05579,-15.78138c0,0 -1.40833,-12.61958 6.30981,-6.30979c7.71808,6.30979 26.99268,6.30979 26.99268,6.30979c0,0 0.11047,-7.01395 7.95282,0s16.6098,3.50697 16.6098,3.50697c0,0 0,12.13634 6.13721,12.20537s16.65814,-8.6984 18.41162,-1.68445s14.02789,10.52092 15.78137,31.56276s-7.01398,82.41389 -7.01398,82.41389z"/>
  <g id="svg_21">
   <path id="svg_22" fill="#3f3d56" d="m328.94202,262.86866l56.12152,106.095l-7.69296,4.0694l-56.12152,-106.095c-0.81461,-1.54001 -0.22571,-3.45166 1.3143,-4.26627l2.1124,-1.1174c1.54001,-0.81461 3.45166,-0.22571 4.26627,1.3143l0,-0.00003l-0.00001,0z"/>
   <path id="svg_23" fill="#3f3d56" d="m422.44043,409.05951c-14.2782,-3.68146 -29.21545,2.83707 -36.38034,15.72446c-8.97168,16.1373 -19.22116,29.37582 -15.789,-2.17569c3.77844,-34.73483 -16.59909,-62.78934 -0.58472,-71.26053c16.0144,-8.47119 32.55023,17.2739 58.57797,40.58359c24.12268,21.60361 10.2121,21.26285 -5.82388,17.12814l-0.00003,0.00003z"/>
  </g>
  <g id="svg_24">
   <path fill="#ebccab" d="m339.79602,284.33167c16.18549,-7.39023 33.11832,-5.02933 37.81979,5.27197c4.70151,10.30133 -4.60828,24.63968 -20.80051,32.0304c-6.42764,3.04099 -13.49008,4.4985 -20.59644,4.25049l-68.974,30.44666l-13.59779,-32.672l69.43977,-26.54626c4.46906,-5.53372 10.19864,-9.91644 16.70917,-12.78122l0,-0.00003l0.00001,-0.00001z" id="uuid-0b6fad7f-d5d0-4a0c-a0be-ac212b15a3eb-139"/>
   <path id="svg_25" fill="#e6e6e6" d="m61.84531,204.29254l-0.00005,0.00005c-14.0799,9.90024 -18.08976,29.0071 -9.17169,43.72871c31.80911,52.50931 100.92059,165.76599 105.40634,166.01147c5.83986,0.31961 151.17784,-68.84827 151.17784,-68.84827l-12.41574,-40.70471l-109.0882,31.12646l-79.64805,-122.39177c-10.11128,-15.53757 -31.09605,-19.58478 -46.26045,-8.922c0,0 0,0.00005 0,0.00005l0,0.00001z"/>
  </g>
  <path id="svg_26" fill="#fca5a5" d="m346.69339,447.26795l186.43765,-98.62067l22.88647,43.26581c19.74213,37.32156 5.46991,83.65002 -31.85168,103.39218l-51.19373,27.08017c-37.32156,19.74213 -83.65005,5.46985 -103.39218,-31.85172l-22.88651,-43.26581l0,0l0,0.00003l-0.00003,0l0.00001,0.00001z"/>
  <path fill="#a0616a" d="m504.6488,513.56c-16.18442,7.39258 -33.11755,5.03418 -37.82056,-5.26645s4.60468,-24.64035 20.79584,-32.03342c6.42719,-3.04193 13.48941,-4.50046 20.59583,-4.25348l68.96954,-30.4567l13.60254,32.67001l-69.43591,26.55637c-4.46826,5.53439 -10.1972,9.91794 -16.70731,12.78366l0.00003,0l0,0.00001z" id="uuid-e7b5d55a-e1e4-4cf1-854d-f1e320155ae0-140"/>
  <path id="svg_27" fill="#e6e6e6" d="m644.92218,221.95383l0.00006,0c17.09271,-2.02448 32.83087,9.528 36.01508,26.44307c11.3573,60.3329 35.47931,190.79976 32.30267,193.97639c-4.13556,4.13559 -158.5307,49.62701 -158.5307,49.62701l-17.92084,-38.59879l102.01105,-49.62698l-22.37238,-144.30188c-2.84015,-18.31905 10.08588,-35.33842 28.49506,-37.51881l0,-0.00002l0,0.00001z"/>
 </g>
</svg>